<?xml version="1.0" encoding="iso-8859-1"?>
<!-- Uploaded to: SVG Repo, www.svgrepo.com, Generator: SVG Repo Mixer Tools -->
<svg height="40px" width="40px" version="1.1" id="Capa_1" xmlns="http://www.w3.org/2000/svg" xmlns:xlink="http://www.w3.org/1999/xlink" 
     viewBox="0 0 368.553 368.553" xml:space="preserve">
    <g>
        <!-- Color celeste: #6EB5FF -->
        <path fill="#F5F5F5" d="M184.277,0c-71.683,0-130,58.317-130,130c0,87.26,119.188,229.855,124.263,235.883c1.417,1.685,3.504,2.66,5.705,2.67
            c0.011,0,0.021,0,0.032,0c2.189,0,4.271-0.957,5.696-2.621c5.075-5.926,124.304-146.165,124.304-235.932
            C314.276,58.317,255.96,0,184.277,0z M184.322,349.251C160.385,319.48,69.277,201.453,69.277,130c0-63.411,51.589-115,115-115
            s115,51.589,115,115C299.276,203.49,208.327,319.829,184.322,349.251z"/>
        <!-- Círculo central amarillo: #FFD700 -->
        <circle cx="184.277" cy="122.562" r="55.269" fill="#FFD700"/>
    </g>
</svg>

